<?xml version="1.0" encoding="utf-8"?>
<!-- Generator: Adobe Illustrator 22.0.1, SVG Export Plug-In . SVG Version: 6.00 Build 0)  -->
<svg version="1.1" id="图层_1" xmlns="http://www.w3.org/2000/svg" xmlns:xlink="http://www.w3.org/1999/xlink" x="0px" y="0px"
	 viewBox="0 0 14 8" style="enable-background:new 0 0 14 8;" xml:space="preserve">
<style type="text/css">
	.st0{opacity:0.65;}
	.st1{opacity:0;}
</style>
<title>闭眼</title>
<desc>Created with Sketch.</desc>
<g id="支付运营平台1112_缴款单来源渠道管理" class="st0">
	<g>
		<g id="_x33_.0-编辑_6_" transform="translate(-1001.000000, -672.000000)">
			<g id="Group-13-Copy-4_6_" transform="translate(416.000000, 660.000000)">
				<g id="Group-13-Copy-5_6_" transform="translate(140.000000, 0.000000)">
					<g id="Group-5_6_">
						<g id="闭眼_6_" transform="translate(444.000000, 8.000000)">
							<g id="Rectangle-path_7_">
								<rect class="st1" width="16" height="16"/>
							</g>
							<g id="Shape_7_">
								<path d="M13.2,4.9c-1.7,2.1-3.4,3.1-5.1,3.1c-1.7,0-3.5-1-5.3-3.2C2.6,4.8,2.4,4.7,2.2,4.7C2,4.8,1.8,4.9,1.7,5.1
									c-0.1,0.2,0,0.4,0.1,0.6c2,2.4,4.1,3.6,6.3,3.6c2.1,0,4.2-1.2,6.1-3.6c0.2-0.3,0.2-0.7-0.1-0.9C13.8,4.6,13.4,4.7,13.2,4.9z
									 M3.6,7.5L2.4,8.8C2.3,9,2.3,9.1,2.4,9.3c0.1,0.2,0.2,0.3,0.3,0.3c0.2,0,0.3,0,0.4-0.1L4.3,8c0.2-0.2,0.1-0.5,0-0.6
									C4.1,7.3,3.8,7.3,3.6,7.5z M6,9.1L5.6,11c-0.1,0.2,0.1,0.5,0.3,0.5c0.2,0.1,0.5-0.1,0.5-0.3l0.5-1.9c0-0.2,0-0.3-0.1-0.4
									C6.7,8.8,6.5,8.7,6.3,8.8S6.1,8.9,6,9.1z M9.5,9.2l0.7,1.9c0.1,0.2,0.3,0.3,0.6,0.3c0.2-0.1,0.4-0.3,0.3-0.6l-0.7-1.9
									C10.2,8.6,10,8.5,9.7,8.6C9.5,8.7,9.4,8.9,9.5,9.2z M11.9,7.5l1.4,1.4c0.2,0.2,0.5,0.2,0.6,0c0.2-0.2,0.2-0.5,0-0.6
									l-1.4-1.4c-0.2-0.2-0.5-0.2-0.6,0C11.7,7.1,11.7,7.4,11.9,7.5L11.9,7.5z"/>
							</g>
						</g>
					</g>
				</g>
			</g>
		</g>
	</g>
</g>
</svg>
