<?xml version="1.0" encoding="utf-8"?>
<!-- Generator: Adobe Illustrator 22.0.1, SVG Export Plug-In . SVG Version: 6.00 Build 0)  -->
<svg version="1.1" id="图层_1" xmlns="http://www.w3.org/2000/svg" xmlns:xlink="http://www.w3.org/1999/xlink" x="0px" y="0px"
	 viewBox="0 0 24 23" style="enable-background:new 0 0 24 23;" xml:space="preserve">
<style type="text/css">
	.st0{opacity:0;fill:#E6F7FF;}
	.st1{fill:#FFFFFF;}
	.st2{fill:#1890FF;}
	.st3{fill:#BAE7FF;}
</style>
<title>礼品通知</title>
<desc>Created with Sketch.</desc>
<g id="应用管理1017">
	<g>
		<g id="_x31_.0a-应用列表_6_" transform="translate(-347.000000, -286.000000)">
			<g id="Group-18_6_" transform="translate(312.000000, 216.000000)">
				<g id="礼品通知_6_" transform="translate(33.000000, 68.000000)">
					<g id="Rectangle-path_7_">
						<rect class="st0" width="28" height="28"/>
					</g>
					<g id="Shape_47_">
						<path class="st1" d="M4,7.4l9.8-4.2c0.1-0.1,0.2-0.1,0.4,0l10,4.2c0.4,0.2,0.4,0.7,0,0.8l-10,4.1c-0.1,0-0.2,0-0.3,0L4,8.2
							C3.6,8,3.6,7.5,4,7.4z"/>
					</g>
					<g id="Shape_46_">
						<path class="st2" d="M13.9,12.9c-0.1,0-0.3,0-0.4-0.1L3.8,8.7C3.4,8.5,3.2,8.2,3.2,7.8c0-0.4,0.2-0.7,0.6-0.9l0,0l9.8-4.2
							c0.2-0.1,0.5-0.1,0.8,0l10,4.2c0.4,0.2,0.6,0.5,0.6,0.9c0,0.4-0.2,0.7-0.6,0.9l-10,4.1C14.1,12.9,14,12.9,13.9,12.9z M4.3,7.8
							l9.6,4l9.8-4l-9.8-4.1L4.3,7.8z"/>
					</g>
					<g id="Shape_45_">
						<path class="st3" d="M4.3,8.2l9.4,4c0.3,0.1,0.5,0.4,0.5,0.7v10.8c0,0.5-0.6,0.9-1.1,0.7L3.6,20c-0.3-0.1-0.4-0.4-0.4-0.7V8.9
							C3.2,8.4,3.8,8,4.3,8.2z"/>
					</g>
					<g id="Shape_44_">
						<path class="st2" d="M13.4,25c-0.2,0-0.4,0-0.5-0.1l-9.4-4.4c-0.4-0.2-0.7-0.7-0.7-1.2V8.9c0-0.4,0.2-0.8,0.6-1.1
							c0.4-0.2,0.8-0.3,1.2-0.1l9.4,4c0.5,0.2,0.8,0.7,0.8,1.2v10.8c0,0.4-0.2,0.8-0.6,1.1C13.8,24.9,13.6,25,13.4,25z M4,8.7
							c-0.1,0-0.1,0-0.1,0c0,0-0.1,0.1-0.1,0.2v10.4c0,0.1,0,0.2,0.1,0.2l9.4,4.4c0.1,0,0.2,0,0.2,0s0.1-0.1,0.1-0.2V12.9
							c0-0.1-0.1-0.2-0.1-0.2L4,8.7C4,8.7,4,8.7,4,8.7z"/>
					</g>
					<g id="Shape_43_">
						<path class="st3" d="M13.9,12.7v11.1c0,0.5,0.5,0.8,0.9,0.6l9.6-4.7c0.2-0.1,0.3-0.3,0.3-0.6V8.8c0-0.4-0.4-0.7-0.8-0.6
							l-9.6,3.9C14.1,12.2,13.9,12.4,13.9,12.7z"/>
					</g>
					<g id="Shape_42_">
						<path class="st2" d="M14.5,24.9c-0.2,0-0.4-0.1-0.6-0.2c-0.3-0.2-0.5-0.6-0.5-1V12.7c0-0.5,0.3-0.9,0.7-1.1l9.6-3.9
							c0.4-0.1,0.8-0.1,1.1,0.1c0.3,0.2,0.5,0.6,0.5,1v10.3c0,0.4-0.3,0.8-0.6,1L15,24.8C14.9,24.9,14.7,24.9,14.5,24.9z M24.1,8.7
							l-9.7,4v11.1l0.4,0.6l-0.2-0.5l9.6-4.7l0-10.4L24.1,8.7z"/>
					</g>
				</g>
			</g>
		</g>
	</g>
</g>
</svg>
